<?xml version="1.0" encoding="UTF-8"?>
<svg id="Layer_2" data-name="Layer 2" xmlns="http://www.w3.org/2000/svg" xmlns:xlink="http://www.w3.org/1999/xlink" viewBox="0 0 101.65 74.77">
  <defs>
    <style>
      .cls-1 {
        font-family: Beatle-Regular, Beatle;
        font-size: 50px;
        stroke: #000;
        stroke-miterlimit: 10;
      }

      .cls-2 {
        fill: url(#linear-gradient);
      }
    </style>
    <linearGradient id="linear-gradient" x1=".5" y1="27.45" x2="101.15" y2="27.45" gradientUnits="userSpaceOnUse">
      <stop offset="0" stop-color="#604099"/>
      <stop offset="1" stop-color="#00bcf2"/>
    </linearGradient>
  </defs>
  <g id="Layer_1-2" data-name="Layer 1">
    <g>
      <text class="cls-1" transform="translate(.7 43.38)"><tspan x="0" y="0">Entrees</tspan></text>
      <g>
        <path class="cls-2" d="M33.8,11.97c-.7.4-1.1,1.05-1.1,1.75,0,.85.75,1.6,2.1,1.6,2.2,0,5.15-1.8,5.15-4.9,0-1.7-.8-4.35-6.5-4.35-6.95,0-12.25,4.85-12.25,9.9,0,.85.15,1.9.8,2.45,1.15-.2,2.1-.25,3-.25,2.05,0,3,.5,3,.95,0,.4-.65.8-1.9.8-1,0-2.6-.3-4.25-1.25-5.1.55-13.55,4.45-13.55,11.1,0,5.1,5.05,7.75,9.9,7.75,5.35,0,9.95-3.25,9.95-6.9,0-1.25-.15-2.75-2.65-3.25v-.1c3.1.15,4.45,3.85,4.45,6.7,0,7.6-6.9,15.4-16.1,15.4-6.3,0-13.35-4.05-13.35-11.15,0-11,12.1-18.5,20.95-19.85-.8-.7-1.2-1.95-1.2-2.95,0-4.2,6.4-9.9,14.45-9.9,4.3,0,8.25,2.4,8.25,6.2,0,5.15-4.65,7.75-7.95,7.75-2.95,0-4.25-1.7-4.25-3.4s1.25-3.4,2.95-4.2l.1.1Z"/>
        <path class="cls-2" d="M35.8,43.38h-7.1c-.25,0-.3-.15-.15-.35,3.4-4,17-19.1,17-22.15,0-.3-.05-.65-.8-.65-1.7,0-5.6,4.75-7.85,8.1l-.2-.05c2.55-4,6.4-8.45,8.4-8.45.75,0,1.1.45,1.1,1.15,0,1.25-1.2,3.25-2.1,4.4h.3c2.25-3.25,4.65-5.65,6.6-5.65,1.05,0,1.7.6,1.7,1.7,0,1.85-3.05,4.15-5.1,6.6-1.3,1.55-2.1,3.15-2.1,4.6,0,.9.25,1.4,1.2,1.4,1.5,0,4.8-2.25,7.05-5.75l.2.05c-1.45,2.1-9.25,15.85-13.25,15.85-1.15,0-1.65-.75-1.65-2.15,0-3.8,4.15-9.15,7.7-13.6,2.7-3.4,5.1-6.25,5.1-7.55,0-.55-.35-.8-.95-.8-3.25,0-7.4,6.9-8.95,9.6-1.65,2.9-3.95,8-5.65,13.35-.1.3-.3.35-.5.35Z"/>
        <path class="cls-2" d="M57.8,19.92h2.05c2.85-3.6,5-6.15,5-6.15h2.85c-.2.15-3.05,2.8-6.2,6.15h2.5v.4h-2.85c-4.05,4.4-8.45,9.85-8.45,12.7,0,.5.15,1.1.85,1.15,1.55.15,4.85-2.4,7.25-5.9l.2.05c-1.45,2.1-9.7,15.85-12.85,15.85-1.05,0-1.5-.55-1.5-1.55,0-4.75,7.55-15.35,12.9-22.3h-1.75v-.4Z"/>
        <path class="cls-2" d="M60.8,28.27c2.8-4.1,5.95-9.4,7.4-13.25-.3-1-.8-2.3-.8-3.4s.3-2.05,1.2-2.05c.45,0,.85.5.85,1.8,0,1.2-.35,2.4-.8,3.55.65,1.65,1.2,3.4,1.2,4.8,0,1.9-1.2,3.35-3.45,6.2-1.85,2.3-3.65,5-3.65,6.8,0,.5.1,1.1.85,1.15,1.55.15,5-2.1,7.4-5.6l.2.05c-1.45,2.1-9.25,15.85-13.25,15.85-1.15,0-1.65-.75-1.65-2.15,0-4.6,6.05-11.55,9.75-16.45,2-2.65,3.1-4.8,3.1-6.65,0-1.1-.3-2.2-.75-3.4-1.55,3.85-4.75,8.95-7.4,12.8l-.2-.05ZM67.8,11.32c0,1.15.45,2.65.65,3.1.3-1,.6-2.05.6-3.15,0-.9-.2-1.3-.45-1.3-.6,0-.8.6-.8,1.35Z"/>
        <path class="cls-2" d="M79.5,28.32c-7.75,11.3-11.4,15.85-14.45,15.85-.85,0-1.25-.6-1.25-1.6,0-4.45,7.4-16.7,13.85-21.2,1.7-1.2,3.05-1.65,3.9-1.65.65,0,1.05.3,1.05.8,0,.85-1.05,2.25-3.45,3.7-2.05,1.25-4.35,2.2-5.75,2.2h-.5c-1.95,2.35-3.5,4.8-3.5,6.2,0,1,.4,1.6,1.5,1.6,2.15,0,5.15-1.9,8.4-5.95l.2.05ZM73.2,26.02h.4c1.8.1,4.1-1.3,5.6-2.7.95-.9,1.4-1.65,1.4-2.1,0-.3-.2-.45-.55-.45-.45,0-1.2.3-2.15.95-1.5,1-3.25,2.6-4.7,4.3Z"/>
        <path class="cls-2" d="M87.8,28.32c-7.75,11.3-11.4,15.85-14.45,15.85-.85,0-1.25-.6-1.25-1.6,0-4.45,7.4-16.7,13.85-21.2,1.7-1.2,3.05-1.65,3.9-1.65.65,0,1.05.3,1.05.8,0,.85-1.05,2.25-3.45,3.7-2.05,1.25-4.35,2.2-5.75,2.2h-.5c-1.95,2.35-3.5,4.8-3.5,6.2,0,1,.4,1.6,1.5,1.6,2.15,0,5.15-1.9,8.4-5.95l.2.05ZM81.5,26.02h.4c1.8.1,4.1-1.3,5.6-2.7.95-.9,1.4-1.65,1.4-2.1,0-.3-.2-.45-.55-.45-.45,0-1.2.3-2.15.95-1.5,1-3.25,2.6-4.7,4.3Z"/>
        <path class="cls-2" d="M101.15,19.27c0,.5-.3.9-.85.9-.45,0-1.3-.85-2.3-.85-1.45,0-3,1.3-3.25,4-.15,1.55-.15,5.2-.45,8.4-.6,6.25-5.45,12.4-10.05,12.4-2.75,0-4.35-1.85-4.35-4.6,0-4.1,3.6-10,7.7-11.25,1.85-2.6,7.85-10.1,11.6-10.1.55,0,1.95.25,1.95,1.1ZM94.3,22.82c.35-1.05.8-2.05,1.45-2.8-3.5,2.55-6.85,6.95-7.8,8.15.4-.1.8-.15,1.2-.15,1.55,0,2.6.95,2.6,2.55,0,1.2-1.35,3.45-3.2,3.45-1.45,0-1.85-.9-1.85-1.95,0-1.7,1.3-2.8,2.6-2.8.4,0,1.05.05,1.55.5,0-.5-.55-1.4-1.7-1.4-1.5,0-3.6,2.2-3.6,4.55,0,1.8,1.1,2.8,2.4,2.8,2.3,0,4.95-2.65,5.35-6.6.15-1.75.35-4.2,1-6.3Z"/>
      </g>
    </g>
  </g>
</svg>